<svg width="198" height="45" viewBox="0 0 198 45" fill="none" xmlns="http://www.w3.org/2000/svg">
<path d="M17.5046 26.5781H16.6494V26.8577H17.5046V26.5781Z" fill="#221F1F"/>
<path d="M24.7774 6.68066H16.919C16.919 6.68066 14.8428 6.82044 14.8428 8.54773V26.5994C14.8428 28.3267 16.919 28.4664 16.919 28.4664H24.7774C24.7774 28.4664 26.8537 28.3267 26.8537 26.5994V8.54773C26.8537 6.82044 24.7774 6.68066 24.7774 6.68066ZM19.8505 7.23479H21.8568C21.8568 7.23479 22.1203 7.23479 22.1203 7.43448C22.1203 7.63417 21.8568 7.63916 21.8568 7.63916H19.8505C19.8505 7.63916 19.5869 7.63916 19.5869 7.43448C19.5869 7.2298 19.8505 7.23479 19.8505 7.23479ZM17.5698 26.9139H16.5855V26.5195H17.5698V26.9139ZM17.6774 26.9139H17.6129V26.4596H16.5855V26.4047H17.6613L17.6774 26.9139ZM21.889 26.9538H19.8074C19.8074 26.9538 19.5331 26.9538 19.5331 26.7092C19.5331 26.4646 19.8074 26.4646 19.8074 26.4646H21.889C21.889 26.4646 22.158 26.4646 22.158 26.7092C22.158 26.9538 21.889 26.9538 21.889 26.9538ZM24.6914 26.7941C24.6842 26.8223 24.668 26.8478 24.645 26.8674C24.622 26.887 24.5932 26.8997 24.5623 26.9039H24.4762H24.1427V26.839H24.4762H24.5515C24.5706 26.8374 24.5887 26.8303 24.6031 26.8186C24.6176 26.807 24.6278 26.7914 24.6322 26.7741C24.643 26.7382 24.643 26.7002 24.6322 26.6643C24.6282 26.649 24.6194 26.6352 24.607 26.6245C24.5946 26.6139 24.579 26.6069 24.5623 26.6044C24.5339 26.5991 24.5046 26.5991 24.4762 26.6044H24.2073V26.7042L23.9975 26.5694L24.2073 26.4346V26.5395H24.4762H24.5784C24.6041 26.5462 24.6274 26.5589 24.6462 26.5764C24.6651 26.5939 24.6788 26.6155 24.686 26.6393C24.7049 26.6894 24.7049 26.744 24.686 26.7941H24.6914ZM26.0899 24.962H15.6012V8.34805H26.0899V24.962Z" fill="#221F1F"/>
<path d="M21.8499 26.5088H19.8436C19.8436 26.5088 19.5801 26.5088 19.5801 26.7085C19.5801 26.9083 19.8436 26.9133 19.8436 26.9133H21.8499C21.8499 26.9133 22.1135 26.9133 22.1135 26.7085C22.1135 26.5038 21.8499 26.5088 21.8499 26.5088Z" fill="#221F1F"/>
<path d="M19.9017 7.59931H21.8327C21.8327 7.59931 22.0855 7.59931 22.0855 7.43954C22.0855 7.27977 21.8327 7.27478 21.8327 7.27478H19.9017C19.9017 7.27478 19.6489 7.27478 19.6489 7.43954C19.6489 7.60431 19.9017 7.59931 19.9017 7.59931Z" fill="#221F1F"/>
<path d="M41.1818 13.4796C40.4126 11.6775 38.7344 10.8038 36.6636 10.3895C36.9486 4.69343 30.7146 1.38862 24.7441 3.84975C24.6204 3.70997 24.4913 3.56021 24.3676 3.40545C21.0112 -0.723063 14.9654 -0.688117 11.4046 1.43355C10.4228 2.03326 9.58269 2.8121 8.9354 3.72267C8.28812 4.63324 7.8472 5.65651 7.63947 6.73023C7.41356 7.72866 7.01015 8.09309 5.87522 8.22788C4.9085 8.31466 3.97313 8.59312 3.13239 9.04442C2.29165 9.49572 1.56514 10.1093 1.00201 10.8438C-0.466411 12.8406 -0.28891 16.2702 1.32474 18.332C2.7824 20.2041 4.92316 20.883 7.32212 20.893H10.189C10.189 19.0559 10.189 17.2237 10.189 15.4016C10.1773 15.1591 10.2575 14.9204 10.4157 14.727C10.5739 14.5337 10.8001 14.3979 11.055 14.3433C11.1572 14.321 11.262 14.3109 11.367 14.3133C11.9049 14.3133 12.4428 14.3133 12.9806 14.3133C13.1181 14.3093 13.2551 14.3306 13.3837 14.3759C13.5123 14.4213 13.63 14.4897 13.7299 14.5774C13.8299 14.6651 13.9102 14.7703 13.9663 14.8869C14.0223 15.0035 14.0529 15.1292 14.0564 15.2568C14.0573 15.3863 14.0297 15.5147 13.9754 15.634C13.9211 15.7533 13.8412 15.861 13.7405 15.9507C13.6399 16.0404 13.5206 16.1101 13.3899 16.1556C13.2593 16.2011 13.12 16.2214 12.9806 16.2153H12.4428V20.908H14.6266V8.48747C14.6266 6.69528 16.7781 6.55051 16.7781 6.55051H24.927C24.927 6.55051 27.0785 6.69528 27.0785 8.48747V20.9679H29.4183C29.4183 19.4702 29.4183 18.0275 29.4183 16.5598V16.2702H28.8804C28.6015 16.2704 28.3334 16.17 28.1328 15.9903C27.9321 15.8105 27.8144 15.5655 27.8047 15.3068C27.8067 15.1787 27.8364 15.0524 27.8919 14.9351C27.9474 14.8179 28.0277 14.7122 28.128 14.6243C28.2282 14.5363 28.3465 14.4679 28.4757 14.4231C28.605 14.3782 28.7426 14.3579 28.8804 14.3632C29.4183 14.3632 30.0046 14.3632 30.564 14.3632C30.8459 14.3731 31.1134 14.4815 31.3129 14.6666C31.5123 14.8518 31.6291 15.1 31.6398 15.3617C31.6398 17.2237 31.6398 19.0808 31.6398 20.9379H36.6044C37.383 20.9732 38.1581 20.8196 38.8532 20.4922C39.5483 20.1648 40.1396 19.6749 40.5686 19.0708C41.1687 18.2617 41.5395 17.3253 41.6466 16.3481C41.7538 15.3709 41.5939 14.3844 41.1818 13.4796" fill="#1EBCE5"/>
<path d="M38.1378 32.0695C37.9108 31.4704 37.4613 30.966 36.8699 30.6467C36.2784 30.3274 35.5838 30.2141 34.9105 30.3272C34.373 30.3907 33.8687 30.6034 33.4637 30.9375C33.0586 31.2715 32.7718 31.7113 32.6406 32.1993C32.4856 32.6631 32.4898 33.1602 32.6527 33.6218C32.8155 34.0833 33.129 34.4864 33.5497 34.7752C33.9307 35.0171 34.3339 35.2276 34.7545 35.4042C34.8 35.4981 34.8132 35.6027 34.7922 35.7038V35.7487V36.2879C34.7922 36.3478 34.7922 36.4077 34.7922 36.4676C34.7922 36.9019 34.7922 37.3362 34.7922 37.7655C34.7786 38.2237 34.721 38.6798 34.62 39.1284C34.1904 40.6202 33.1619 41.9029 31.7457 42.7133C30.3294 43.5236 28.6327 43.8003 27.0036 43.4865C25.5485 43.2679 24.2224 42.5818 23.2569 41.5479C22.2915 40.5141 21.7481 39.1983 21.7216 37.8304C21.7216 36.2878 21.7216 34.7453 21.7216 33.2077C21.7216 33.008 21.77 32.9281 22.0067 32.9431C22.2171 32.962 22.4293 32.9333 22.6251 32.8594C22.8209 32.7855 22.9944 32.6686 23.1309 32.5188C23.2146 32.4339 23.3229 32.3733 23.4429 32.344C25.2455 31.9884 26.9152 31.1981 28.2838 30.0526C29.3107 29.2345 30.1407 28.225 30.7199 27.0897C31.2991 25.9544 31.6144 24.7188 31.6456 23.463C31.6456 22.6243 31.6778 21.7856 31.6778 20.9669H29.4295C29.4295 21.6309 29.4295 22.2948 29.4295 22.9638C29.437 23.5171 29.3793 24.0695 29.2574 24.6112C28.5097 27.5116 26.4926 29.4236 23.2546 30.3172C23.2115 30.3244 23.1673 30.3232 23.1247 30.3138C23.0821 30.3043 23.0421 30.2868 23.0072 30.2623C22.7842 30.0735 22.4966 29.9639 22.195 29.9528C21.3505 29.9528 20.5114 29.9528 19.6669 29.9528C19.3545 29.9669 19.0583 30.0857 18.8332 30.2873C18.7608 30.333 18.6721 30.3509 18.5858 30.3372C16.9785 29.9418 15.5335 29.1131 14.4333 27.9559C13.9931 27.4986 13.6105 26.9962 13.293 26.4583C12.7191 25.4311 12.4202 24.2906 12.4217 23.1335V20.927H10.1895C10.1895 21.5909 10.1895 22.2499 10.1895 22.9238C10.1911 23.5322 10.2414 24.1396 10.3401 24.741C10.5169 25.7589 10.8963 26.7374 11.4589 27.6265C11.7769 28.1652 12.1614 28.6678 12.6045 29.1241C12.6282 29.1564 12.6552 29.1865 12.6852 29.214C12.7659 29.2938 12.8466 29.3787 12.9326 29.4586L12.9757 29.4985C14.4483 30.933 16.3497 31.9257 18.4352 32.349C18.5521 32.3787 18.6581 32.4374 18.7418 32.5188C18.8578 32.6472 19.0014 32.7518 19.1635 32.8257C19.3256 32.8997 19.5026 32.9413 19.6831 32.9481C19.8283 32.9481 19.9681 32.9481 20.1403 32.9481V33.2177C20.1403 34.7952 20.1403 36.3677 20.1403 37.9403C20.1479 38.4447 20.2146 38.9469 20.3393 39.4379C21.2644 42.9923 25.035 45.4634 29.4833 44.8844C31.347 44.6602 33.0635 43.8265 34.3242 42.533C35.5034 41.3835 36.1999 39.8799 36.2875 38.2947C36.3413 37.3562 36.3197 36.4127 36.3251 35.4741C36.3148 35.4051 36.332 35.335 36.3737 35.277C36.4153 35.2191 36.4784 35.1773 36.551 35.1596C37.1886 34.9254 37.7056 34.4741 37.9966 33.8979C38.2875 33.3216 38.3303 32.664 38.1163 32.0595" fill="#414141"/>
<path d="M83.1262 29.4539C79.318 32.7937 74.4018 34.3463 69.0606 34.3463C55.3177 34.3562 49.4871 25.9594 49.4441 17.3729C49.401 8.78641 55.6835 0.000207539 69.0606 0.000207539C74.1226 -0.0222846 78.9953 1.7842 82.6475 5.0373L77.9948 9.03102C75.5489 6.98173 72.3552 5.87176 69.0606 5.9259C60.1264 5.9259 56.2698 11.8516 56.3182 17.353C56.3666 22.8543 59.9166 28.5004 69.0606 28.5004C72.5004 28.492 75.815 27.3024 78.366 25.1607L83.1262 29.4539Z" fill="#1EBCE5"/>
<path d="M118.755 9.75515L106.701 24.0527H105.33L93.5393 9.70523V33.6476H86.5576V0.724335H94.5989L106.174 14.8821L117.755 0.724335H125.737V33.6476H118.755V9.75515Z" fill="#EA4424"/>
<path d="M159.887 33.6024H132.186V0.674133H159.887V6.69468H139.114V14.2678H159.15V20.0537H139.114V27.487H159.887V33.6024Z" fill="#1EBCE5"/>
<path d="M197.849 16.8543C198.005 25.1813 192.298 33.603 179.346 33.603H164.823V0.654785H179.346C192.035 0.654785 197.688 8.69715 197.849 16.8344V16.8543ZM171.73 27.6274H179.346C187.753 27.6274 191.083 22.171 190.921 16.8094C190.765 11.6825 187.382 6.55552 179.346 6.55552H171.73V27.6274Z" fill="#1EBCE5"/>
<path d="M88.4124 41.1712C88.3961 40.8444 88.4524 40.518 88.5777 40.2122C88.7029 39.9065 88.8946 39.6279 89.1408 39.3938C89.3869 39.1597 89.6823 38.9751 90.0085 38.8514C90.3348 38.7277 90.6849 38.6676 91.0373 38.6748C91.4015 38.6697 91.7619 38.7438 92.0897 38.8912C92.4176 39.0386 92.7037 39.2551 92.9252 39.5235L92.5487 39.7482C92.3734 39.5299 92.1453 39.3529 91.8827 39.2315C91.6202 39.1101 91.3306 39.0477 91.0373 39.0492C90.4537 39.0756 89.9034 39.3093 89.5004 39.702C89.0974 40.0948 88.8726 40.6163 88.8726 41.1587C88.8726 41.701 89.0974 42.2226 89.5004 42.6153C89.9034 43.008 90.4537 43.2418 91.0373 43.2682C91.3306 43.2697 91.6202 43.2073 91.8827 43.0859C92.1453 42.9644 92.3734 42.7875 92.5487 42.5692L92.9306 42.7888C92.7085 43.0583 92.4217 43.2758 92.0929 43.424C91.7642 43.5722 91.4027 43.6471 91.0373 43.6426C90.6873 43.6496 90.3395 43.5902 90.0151 43.468C89.6907 43.3459 89.3967 43.1635 89.1509 42.9321C88.9052 42.7007 88.7129 42.4252 88.5859 42.1224C88.4589 41.8196 88.3999 41.4959 88.4124 41.1712V41.1712Z" fill="black"/>
<path d="M93.5922 41.8248C93.6235 41.5003 93.756 41.1914 93.9733 40.9356C94.1907 40.6798 94.4835 40.4883 94.8162 40.3845C95.1488 40.2807 95.5069 40.269 95.8465 40.3509C96.1862 40.4328 96.4929 40.6047 96.729 40.8456C96.9652 41.0866 97.1207 41.3862 97.1765 41.7078C97.2324 42.0294 97.1861 42.3591 97.0434 42.6568C96.9007 42.9544 96.6677 43.207 96.3729 43.3837C96.0781 43.5605 95.7343 43.6538 95.3833 43.6522C95.1334 43.6503 94.8866 43.6004 94.6584 43.5057C94.4302 43.4111 94.2256 43.2736 94.0574 43.102C93.8891 42.9304 93.761 42.7283 93.6809 42.5085C93.6009 42.2887 93.5707 42.056 93.5922 41.8248V41.8248ZM96.755 41.8248C96.788 41.6403 96.7774 41.4513 96.7239 41.271C96.6703 41.0906 96.5751 40.9233 96.4448 40.7806C96.3145 40.6379 96.1523 40.5232 95.9695 40.4446C95.7866 40.3659 95.5876 40.3252 95.386 40.3252C95.1845 40.3252 94.9854 40.3659 94.8026 40.4446C94.6197 40.5232 94.4575 40.6379 94.3273 40.7806C94.197 40.9233 94.1018 41.0906 94.0482 41.271C93.9946 41.4513 93.984 41.6403 94.0171 41.8248C94.0171 42.6037 94.512 43.3227 95.3833 43.3227C96.2547 43.3227 96.7496 42.6037 96.7496 41.8248H96.755Z" fill="black"/>
<path d="M100.753 43.567V41.2104C100.753 40.5414 100.387 40.3416 99.8441 40.3416C99.6069 40.3515 99.3749 40.4099 99.1648 40.5126C98.9547 40.6153 98.7715 40.7598 98.6285 40.9358V43.567H98.2251V40.072H98.6285V40.6013C98.7962 40.4185 99.0026 40.2697 99.2348 40.1641C99.4671 40.0584 99.7202 39.9982 99.9786 39.9872C100.737 39.9872 101.157 40.3317 101.157 41.1205V43.552L100.753 43.567Z" fill="black"/>
<path d="M104.936 43.567V41.2104C104.936 40.5414 104.576 40.3416 104.033 40.3416C103.794 40.3508 103.561 40.4089 103.35 40.5116C103.139 40.6143 102.955 40.7592 102.812 40.9358V43.567H102.408V40.072H102.812V40.6013C102.98 40.419 103.186 40.2705 103.418 40.1649C103.651 40.0593 103.903 39.9988 104.162 39.9872C104.925 39.9872 105.34 40.3317 105.34 41.1205V43.552L104.936 43.567Z" fill="black"/>
<path d="M106.39 41.8258C106.375 41.5959 106.411 41.3656 106.494 41.1486C106.577 40.9316 106.706 40.7322 106.873 40.5623C107.041 40.3924 107.243 40.2554 107.469 40.1594C107.694 40.0634 107.938 40.0104 108.186 40.0034C109.327 40.0034 109.956 40.8372 109.956 41.8458V41.9356H106.82C106.817 42.1165 106.852 42.2962 106.924 42.4642C106.996 42.6321 107.104 42.785 107.241 42.9139C107.378 43.0427 107.541 43.1449 107.721 43.2144C107.901 43.2839 108.094 43.3193 108.289 43.3186C108.519 43.3192 108.747 43.2751 108.959 43.1891C109.17 43.1032 109.359 42.9772 109.515 42.8194L109.725 43.064C109.537 43.2485 109.308 43.3937 109.055 43.4901C108.802 43.5865 108.53 43.6319 108.256 43.6232C108.004 43.627 107.754 43.5825 107.521 43.4927C107.288 43.4028 107.077 43.2695 106.902 43.1009C106.727 42.9323 106.592 42.7321 106.503 42.5128C106.415 42.2934 106.377 42.0596 106.39 41.8258V41.8258ZM108.181 40.3279C107.813 40.3397 107.464 40.4847 107.21 40.732C106.956 40.9793 106.816 41.3092 106.82 41.651H109.547C109.554 41.4803 109.523 41.3101 109.458 41.1504C109.392 40.9908 109.293 40.845 109.165 40.7216C109.038 40.5983 108.885 40.4999 108.716 40.4323C108.547 40.3646 108.365 40.3292 108.181 40.3279V40.3279Z" fill="black"/>
<path d="M110.804 41.8242C110.785 41.5921 110.818 41.3588 110.9 41.1389C110.982 40.919 111.112 40.7172 111.283 40.5462C111.453 40.3752 111.659 40.2385 111.889 40.1449C112.118 40.0512 112.366 40.0025 112.617 40.0018C112.874 39.99 113.129 40.0377 113.361 40.1405C113.593 40.2434 113.794 40.3982 113.945 40.591L113.666 40.8206C113.555 40.6629 113.402 40.5342 113.222 40.4468C113.042 40.3594 112.841 40.3162 112.638 40.3214C112.21 40.3214 111.8 40.4792 111.497 40.7601C111.195 41.041 111.025 41.422 111.025 41.8192C111.025 42.2165 111.195 42.5975 111.497 42.8784C111.8 43.1593 112.21 43.3171 112.638 43.3171C112.841 43.3217 113.042 43.2783 113.222 43.191C113.401 43.1036 113.554 42.9752 113.666 42.8178L113.945 43.0524C113.795 43.2465 113.595 43.4025 113.363 43.5063C113.13 43.6101 112.874 43.6583 112.617 43.6466C112.366 43.6452 112.119 43.596 111.89 43.5021C111.66 43.4081 111.454 43.2715 111.284 43.1006C111.114 42.9298 110.984 42.7283 110.901 42.5087C110.819 42.2891 110.786 42.0561 110.804 41.8242V41.8242Z" fill="black"/>
<path d="M114.897 42.8974V40.4359H114.278V40.0864H114.897V39.1378H115.311V40.0864H116.069V40.4359H115.311V42.8524C115.311 43.137 115.435 43.3517 115.698 43.3517C115.777 43.3515 115.855 43.3364 115.927 43.3072C115.999 43.278 116.064 43.2354 116.118 43.182L116.274 43.4715C116.189 43.5461 116.088 43.6036 115.978 43.6405C115.868 43.6775 115.751 43.693 115.634 43.6862C115.139 43.6513 114.897 43.3717 114.897 42.8974Z" fill="black"/>
<path d="M116.847 39.2529C116.857 39.1832 116.894 39.1193 116.951 39.073C117.007 39.0267 117.081 39.0012 117.156 39.0012C117.232 39.0012 117.305 39.0267 117.362 39.073C117.419 39.1193 117.456 39.1832 117.466 39.2529C117.471 39.2937 117.468 39.3353 117.455 39.3748C117.442 39.4142 117.42 39.4507 117.391 39.4817C117.362 39.5127 117.325 39.5375 117.285 39.5546C117.245 39.5716 117.201 39.5804 117.156 39.5804C117.112 39.5804 117.068 39.5716 117.027 39.5546C116.987 39.5375 116.951 39.5127 116.922 39.4817C116.892 39.4507 116.871 39.4142 116.858 39.3748C116.845 39.3353 116.841 39.2937 116.847 39.2529V39.2529ZM116.955 43.5667V40.0717H117.358V43.5667H116.955Z" fill="black"/>
<path d="M121.141 43.567V41.2104C121.141 40.5414 120.775 40.3416 120.232 40.3416C119.994 40.3508 119.761 40.4089 119.55 40.5116C119.338 40.6143 119.154 40.7592 119.011 40.9358V43.567H118.607V40.072H119.011V40.6013C119.179 40.419 119.385 40.2705 119.618 40.1649C119.85 40.0593 120.103 39.9988 120.361 39.9872C121.125 39.9872 121.539 40.3317 121.539 41.1205V43.552L121.141 43.567Z" fill="black"/>
<path d="M122.806 44.4321L123.038 44.1325C123.186 44.3049 123.378 44.4407 123.597 44.5278C123.816 44.6149 124.054 44.6506 124.291 44.6318C124.456 44.6502 124.623 44.635 124.78 44.5872C124.938 44.5393 125.082 44.46 125.203 44.3549C125.324 44.2497 125.419 44.1212 125.48 43.9784C125.542 43.8356 125.569 43.682 125.56 43.5284V42.9841C125.415 43.1823 125.22 43.3452 124.993 43.459C124.765 43.5728 124.512 43.6343 124.253 43.6382C123.258 43.6382 122.586 42.9442 122.586 41.8258C122.586 40.7074 123.258 40.0034 124.253 40.0034C124.51 40.0076 124.763 40.0686 124.989 40.1815C125.215 40.2944 125.409 40.4559 125.555 40.6525V40.0883H125.969V43.5383C125.969 44.5968 125.189 44.9813 124.286 44.9813C124.01 45.0011 123.734 44.9619 123.477 44.8666C123.221 44.7714 122.991 44.6227 122.806 44.4321V44.4321ZM125.56 42.6496V40.977C125.426 40.7861 125.244 40.6286 125.029 40.5181C124.815 40.4076 124.574 40.3474 124.329 40.3429C123.495 40.3429 123.016 40.982 123.016 41.8408C123.016 42.6995 123.495 43.3386 124.329 43.3386C124.577 43.3295 124.82 43.2636 125.035 43.147C125.249 43.0303 125.43 42.8663 125.56 42.6696V42.6496Z" fill="black"/>
<path d="M129.236 43.567V38.7639H131.178C131.579 38.7639 131.963 38.9117 132.247 39.1749C132.53 39.438 132.689 39.7948 132.689 40.1669C132.689 40.539 132.53 40.8959 132.247 41.159C131.963 41.4221 131.579 41.5699 131.178 41.5699H129.683V43.567H129.236ZM132.27 40.1669C132.275 40.0281 132.248 39.8899 132.192 39.7611C132.136 39.6323 132.052 39.5158 131.944 39.419C131.837 39.3222 131.709 39.2472 131.569 39.1989C131.429 39.1506 131.279 39.13 131.13 39.1384H129.683V41.1954H131.13C131.279 41.2038 131.429 41.1832 131.569 41.1349C131.709 41.0866 131.837 41.0117 131.944 40.9149C132.052 40.8181 132.136 40.7015 132.192 40.5728C132.248 40.444 132.275 40.3057 132.27 40.1669V40.1669Z" fill="black"/>
<path d="M133.349 41.8258C133.335 41.5956 133.371 41.3652 133.455 41.1482C133.539 40.9312 133.668 40.7318 133.836 40.562C134.004 40.3922 134.207 40.2553 134.433 40.1593C134.659 40.0634 134.903 40.0104 135.151 40.0034C136.291 40.0034 136.921 40.8372 136.921 41.8458V41.9356H133.785C133.781 42.1165 133.817 42.2962 133.889 42.4642C133.961 42.6322 134.069 42.7851 134.205 42.9139C134.342 43.0427 134.505 43.1449 134.685 43.2144C134.865 43.2839 135.058 43.3193 135.253 43.3186C135.484 43.3192 135.712 43.2751 135.923 43.1892C136.134 43.1032 136.324 42.9772 136.48 42.8194L136.689 43.064C136.501 43.248 136.272 43.3929 136.019 43.4892C135.766 43.5856 135.494 43.6313 135.221 43.6232C134.968 43.6269 134.718 43.5825 134.485 43.4927C134.252 43.4029 134.041 43.2696 133.865 43.1011C133.69 42.9327 133.553 42.7325 133.465 42.5132C133.376 42.2938 133.337 42.0598 133.349 41.8258V41.8258ZM135.146 40.3279C134.777 40.3397 134.429 40.4847 134.175 40.732C133.92 40.9793 133.78 41.3092 133.785 41.651H136.512C136.518 41.4803 136.488 41.3101 136.422 41.1504C136.357 40.9908 136.257 40.845 136.13 40.7216C136.002 40.5983 135.85 40.4999 135.681 40.4323C135.512 40.3646 135.33 40.3292 135.146 40.3279V40.3279Z" fill="black"/>
<path d="M137.747 41.8248C137.778 41.5003 137.911 41.1914 138.128 40.9356C138.345 40.6798 138.638 40.4883 138.971 40.3845C139.304 40.2807 139.662 40.269 140.001 40.3509C140.341 40.4328 140.648 40.6047 140.884 40.8456C141.12 41.0866 141.275 41.3862 141.331 41.7078C141.387 42.0294 141.341 42.3591 141.198 42.6568C141.055 42.9544 140.822 43.207 140.528 43.3837C140.233 43.5605 139.889 43.6538 139.538 43.6522C139.288 43.651 139.041 43.6017 138.812 43.5073C138.584 43.4128 138.379 43.2754 138.21 43.1036C138.042 42.9318 137.914 42.7294 137.834 42.5093C137.754 42.2892 137.725 42.0561 137.747 41.8248V41.8248ZM140.91 41.8248C140.943 41.6403 140.932 41.4513 140.879 41.271C140.825 41.0906 140.73 40.9233 140.6 40.7806C140.469 40.6379 140.307 40.5232 140.124 40.4446C139.941 40.3659 139.742 40.3252 139.541 40.3252C139.339 40.3252 139.14 40.3659 138.957 40.4446C138.774 40.5232 138.612 40.6379 138.482 40.7806C138.352 40.9233 138.257 41.0906 138.203 41.271C138.149 41.4513 138.139 41.6403 138.172 41.8248C138.172 42.6037 138.667 43.3227 139.538 43.3227C140.409 43.3227 140.926 42.6037 140.926 41.8248H140.91Z" fill="black"/>
<path d="M142.78 43.0041V44.8964H142.376V40.0883H142.78V40.6375C142.928 40.443 143.123 40.284 143.351 40.1737C143.578 40.0635 143.83 40.0051 144.087 40.0034C145.087 40.0034 145.765 40.7074 145.765 41.8258C145.765 42.9442 145.087 43.6532 144.087 43.6532C143.829 43.6498 143.576 43.5891 143.348 43.4762C143.121 43.3633 142.926 43.2014 142.78 43.0041V43.0041ZM145.329 41.8258C145.329 40.982 144.856 40.3279 144.017 40.3279C143.772 40.3304 143.532 40.3881 143.316 40.4959C143.101 40.6037 142.917 40.7586 142.78 40.947V42.6846C142.917 42.874 143.1 43.0304 143.316 43.1407C143.531 43.251 143.771 43.312 144.017 43.3186C144.856 43.3186 145.329 42.6696 145.329 41.8258Z" fill="black"/>
<path d="M146.777 42.898V38.7639H147.18V42.8381C147.18 43.1227 147.304 43.3374 147.568 43.3374C147.646 43.3372 147.724 43.3221 147.796 43.2929C147.868 43.2637 147.933 43.221 147.987 43.1676L148.138 43.4572C148.054 43.5321 147.954 43.5899 147.845 43.6269C147.736 43.6639 147.619 43.6792 147.503 43.6719C147.014 43.6519 146.777 43.3723 146.777 42.898Z" fill="black"/>
<path d="M148.553 41.8258C148.539 41.5959 148.574 41.3656 148.657 41.1486C148.74 40.9316 148.869 40.7322 149.037 40.5623C149.204 40.3924 149.407 40.2554 149.632 40.1594C149.858 40.0634 150.102 40.0104 150.35 40.0034C151.49 40.0034 152.12 40.8372 152.12 41.8458V41.9356H148.995C148.99 42.1162 149.025 42.2958 149.097 42.4638C149.168 42.6318 149.275 42.7847 149.412 42.9136C149.548 43.0425 149.711 43.1447 149.891 43.2143C150.07 43.2839 150.263 43.3193 150.458 43.3186C150.688 43.3192 150.916 43.2751 151.128 43.1891C151.339 43.1032 151.528 42.9772 151.684 42.8194L151.894 43.064C151.706 43.2485 151.477 43.3937 151.224 43.4901C150.971 43.5865 150.699 43.6319 150.425 43.6232C150.173 43.6276 149.922 43.5837 149.688 43.4942C149.455 43.4046 149.243 43.2714 149.068 43.1027C148.892 42.9341 148.756 42.7337 148.667 42.514C148.579 42.2943 148.54 42.06 148.553 41.8258V41.8258ZM150.345 40.3279C149.978 40.3409 149.631 40.4867 149.379 40.734C149.127 40.9813 148.989 41.3105 148.995 41.651H151.716C151.723 41.4797 151.693 41.3087 151.628 41.1485C151.562 40.9882 151.462 40.8419 151.334 40.7183C151.206 40.5948 151.052 40.4965 150.882 40.4294C150.712 40.3623 150.529 40.3278 150.345 40.3279V40.3279Z" fill="black"/>
<path d="M153.205 44.4306L152.979 44.2558C153.099 44.1808 153.201 44.0835 153.278 43.97C153.354 43.8565 153.405 43.7294 153.426 43.5968H153.351C153.308 43.5975 153.266 43.5902 153.227 43.5753C153.188 43.5604 153.152 43.5383 153.123 43.5103C153.093 43.4822 153.07 43.4489 153.054 43.4123C153.039 43.3756 153.032 43.3365 153.033 43.2972C153.033 43.2146 153.068 43.1354 153.131 43.0765C153.193 43.0177 153.278 42.9839 153.367 42.9826C153.577 42.9826 153.759 43.1524 153.759 43.447C153.755 43.6396 153.703 43.8286 153.607 43.9993C153.511 44.17 153.374 44.3177 153.205 44.4306V44.4306Z" fill="black"/>
<path d="M156.59 42.8887L156.875 42.5791C157.075 42.7958 157.322 42.9703 157.601 43.0909C157.879 43.2114 158.182 43.2753 158.489 43.2781C159.565 43.2781 159.845 42.7339 159.845 42.3195C159.845 40.9115 156.741 41.6455 156.741 39.9679C156.741 39.184 157.505 38.6847 158.446 38.6847C158.774 38.6716 159.101 38.7256 159.404 38.8429C159.707 38.9603 159.979 39.1381 160.199 39.3638L159.904 39.6633C159.721 39.4652 159.493 39.308 159.236 39.2034C158.979 39.0987 158.7 39.0494 158.419 39.0592C157.731 39.0592 157.209 39.4237 157.209 39.9429C157.209 41.1762 160.312 40.5021 160.312 42.2946C160.312 42.9137 159.871 43.6526 158.473 43.6526C158.118 43.6626 157.765 43.5993 157.439 43.4672C157.113 43.3351 156.824 43.1375 156.59 42.8887V42.8887Z" fill="black"/>
<path d="M164.13 43.5683V43.0141C163.983 43.2088 163.788 43.3684 163.562 43.4795C163.336 43.5906 163.084 43.6501 162.828 43.6532C161.833 43.6532 161.155 42.9492 161.155 41.8308C161.155 40.7124 161.833 40.0034 162.828 40.0034C163.085 40.0076 163.337 40.0686 163.564 40.1815C163.79 40.2944 163.984 40.4559 164.13 40.6525V40.0883H164.539V43.5833L164.13 43.5683ZM164.13 42.6995V40.977C163.994 40.786 163.811 40.6285 163.596 40.5181C163.38 40.4076 163.139 40.3475 162.893 40.3429C162.064 40.3429 161.586 40.992 161.586 41.8408C161.586 42.6895 162.064 43.3386 162.893 43.3386C163.139 43.3331 163.381 43.272 163.596 43.1607C163.812 43.0494 163.995 42.8911 164.13 42.6995V42.6995Z" fill="black"/>
<path d="M166.799 43.5666L165.217 40.0717H165.669L167.035 43.1123L168.385 40.0717H168.843L167.261 43.5666H166.799Z" fill="black"/>
<path d="M169.434 39.2533C169.436 39.1783 169.47 39.1071 169.529 39.055C169.587 39.0028 169.665 38.9737 169.746 38.9737C169.786 38.9724 169.826 38.9786 169.864 38.9921C169.902 39.0055 169.936 39.0259 169.966 39.052C169.995 39.0781 170.018 39.1094 170.034 39.144C170.049 39.1786 170.058 39.2157 170.058 39.2533C170.058 39.3301 170.025 39.4038 169.966 39.4581C169.908 39.5124 169.828 39.5429 169.746 39.5429C169.663 39.5416 169.585 39.5107 169.526 39.4567C169.468 39.4026 169.435 39.3297 169.434 39.2533ZM169.541 43.5671V40.0721H169.95V43.5671H169.541Z" fill="black"/>
<path d="M173.736 43.567V41.2104C173.736 40.5414 173.37 40.3416 172.827 40.3416C172.585 40.3479 172.347 40.4045 172.132 40.5074C171.917 40.6102 171.73 40.7566 171.584 40.9358V43.567H171.181V40.072H171.584V40.6013C171.752 40.4185 171.958 40.2697 172.19 40.1641C172.423 40.0584 172.676 39.9982 172.934 39.9872C173.693 39.9872 174.112 40.3317 174.112 41.1205V43.552L173.736 43.567Z" fill="black"/>
<path d="M175.35 44.4321L175.587 44.1325C175.734 44.3045 175.925 44.4401 176.143 44.5272C176.361 44.6143 176.598 44.6502 176.834 44.6318C176.999 44.651 177.167 44.6364 177.325 44.5889C177.483 44.5414 177.628 44.4623 177.75 44.357C177.872 44.2517 177.967 44.1229 178.029 43.9798C178.091 43.8366 178.118 43.6825 178.109 43.5284V42.9841C177.964 43.1823 177.769 43.3452 177.542 43.459C177.314 43.5728 177.061 43.6343 176.802 43.6382C175.813 43.6382 175.135 42.9442 175.135 41.8258C175.135 40.7074 175.813 40.0034 176.802 40.0034C177.06 40.0068 177.313 40.0674 177.541 40.1804C177.768 40.2933 177.963 40.4552 178.109 40.6525V40.0883H178.518V43.5383C178.518 44.5968 177.743 44.9813 176.834 44.9813C176.558 45.0011 176.281 44.9619 176.023 44.8667C175.766 44.7715 175.536 44.6228 175.35 44.4321V44.4321ZM178.109 42.6496V40.977C177.974 40.7858 177.791 40.628 177.575 40.5175C177.36 40.407 177.118 40.347 176.872 40.3429C176.044 40.3429 175.565 40.982 175.565 41.8408C175.565 42.6995 176.044 43.3386 176.872 43.3386C177.125 43.3327 177.373 43.2684 177.592 43.1516C177.812 43.0348 177.997 42.8692 178.131 42.6696L178.109 42.6496Z" fill="black"/>
<path d="M181.702 43.567V38.7639H182.149V43.1926H184.655V43.567H181.702Z" fill="black"/>
<path d="M185.435 39.2533C185.438 39.1783 185.472 39.1071 185.53 39.055C185.588 39.0028 185.666 38.9737 185.747 38.9737C185.787 38.9724 185.828 38.9786 185.866 38.9921C185.903 39.0055 185.938 39.0259 185.967 39.052C185.996 39.0781 186.019 39.1094 186.035 39.144C186.051 39.1786 186.059 39.2157 186.059 39.2533C186.059 39.3301 186.026 39.4038 185.968 39.4581C185.909 39.5124 185.83 39.5429 185.747 39.5429C185.665 39.5416 185.586 39.5107 185.528 39.4567C185.47 39.4026 185.436 39.3297 185.435 39.2533V39.2533ZM185.548 43.5671V40.0721H185.951V43.5671H185.548Z" fill="black"/>
<path d="M188.212 43.5666L186.63 40.0717H187.082L188.448 43.1123L189.798 40.0717H190.256L188.674 43.5666H188.212Z" fill="black"/>
<path d="M190.724 41.8258C190.71 41.5956 190.746 41.3652 190.83 41.1482C190.914 40.9312 191.043 40.7318 191.211 40.562C191.379 40.3922 191.582 40.2553 191.808 40.1593C192.034 40.0634 192.278 40.0104 192.526 40.0034C193.666 40.0034 194.296 40.8372 194.296 41.8458V41.9356H191.16C191.156 42.1165 191.192 42.2962 191.264 42.4642C191.336 42.6322 191.444 42.7851 191.581 42.9139C191.717 43.0427 191.88 43.1449 192.06 43.2144C192.24 43.2839 192.433 43.3193 192.628 43.3186C192.859 43.3192 193.087 43.2751 193.298 43.1892C193.509 43.1032 193.699 42.9772 193.854 42.8194L194.064 43.064C193.876 43.248 193.647 43.3929 193.394 43.4892C193.141 43.5856 192.869 43.6313 192.596 43.6232C192.343 43.6269 192.093 43.5825 191.86 43.4927C191.627 43.4029 191.416 43.2696 191.24 43.1011C191.065 42.9327 190.928 42.7325 190.84 42.5132C190.751 42.2938 190.712 42.0598 190.724 41.8258V41.8258ZM192.521 40.3279C192.152 40.3397 191.804 40.4847 191.55 40.732C191.295 40.9793 191.155 41.3092 191.16 41.651H193.887C193.893 41.4803 193.863 41.3101 193.797 41.1504C193.732 40.9908 193.632 40.845 193.505 40.7216C193.377 40.5983 193.225 40.4999 193.056 40.4323C192.887 40.3646 192.705 40.3292 192.521 40.3279V40.3279Z" fill="black"/>
<path d="M195.005 43.097L195.247 42.8224C195.396 42.9837 195.582 43.1123 195.791 43.1986C196.001 43.285 196.228 43.327 196.457 43.3217C197.081 43.3217 197.458 43.0171 197.458 42.6177C197.458 41.664 195.091 42.2033 195.091 40.9501C195.091 40.4208 195.58 39.9865 196.425 39.9865C196.674 39.9744 196.923 40.0128 197.154 40.099C197.385 40.1852 197.593 40.3172 197.764 40.4857L197.544 40.7554C197.408 40.6036 197.237 40.4832 197.043 40.4035C196.848 40.3238 196.637 40.287 196.425 40.296C195.844 40.296 195.494 40.5656 195.494 40.9251C195.494 41.7989 197.85 41.2646 197.85 42.6077C197.85 43.1669 197.388 43.6063 196.446 43.6063C196.18 43.6264 195.913 43.5911 195.664 43.503C195.414 43.4149 195.189 43.2762 195.005 43.097Z" fill="black"/>
</svg>
